<mxfile host="app.diagrams.net" modified="2023-09-16T16:33:33.453Z" agent="Mozilla/5.0 (X11; Linux x86_64) AppleWebKit/537.36 (KHTML, like Gecko) Chrome/116.0.0.0 Safari/537.36" version="21.5.0" etag="g_t3Pfjzo53KI5peb4aL" type="github">
  <diagram name="Page-1" id="_IDJ0LwgXzGuceH5oedR">
    <mxGraphModel>
      <root>
        <mxCell id="0" />
        <mxCell id="1" parent="0" />
      </root>
    </mxGraphModel>
  </diagram>
</mxfile>
